<svg display="none" xmlns="http://www.w3.org/2000/svg">
    <symbol viewBox="0 0 448 512" id="o">
        <path
            d="M224 32.01c-123.5 0-224 100.5-224 224s100.5 224 224 224s224-100.5 224-224S347.5 32.01 224 32.01zM224 416c-88.22 0-160-71.78-160-160s71.78-159.1 160-159.1s160 71.78 160 159.1S312.2 416 224 416z" />
    </symbol>
    <symbol viewBox="0 0 52.001 52.001" id="x">
        <path d="M47.743,41.758L33.955,26.001l13.788-15.758c2.343-2.344,2.343-6.143,0-8.486
			c-2.345-2.343-6.144-2.342-8.486,0.001L26,16.91L12.743,1.758C10.4-0.584,6.602-0.585,4.257,1.757
			c-2.343,2.344-2.343,6.143,0,8.486l13.788,15.758L4.257,41.758c-2.343,2.343-2.343,6.142-0.001,8.485
			c2.344,2.344,6.143,2.344,8.487,0L26,35.091l13.257,15.152c2.345,2.344,6.144,2.344,8.487,0
			C50.086,47.9,50.086,44.101,47.743,41.758z" />
    </symbol>
</svg>